<?xml version="1.0" encoding="UTF-8" standalone="no"?>
<!-- Created with Inkscape (http://www.inkscape.org/) -->

<svg
   width="34.602535mm"
   height="35.867584mm"
   viewBox="0 0 34.602535 35.867584"
   version="1.1"
   id="svg2889"
   xmlns="http://www.w3.org/2000/svg"
   xmlns:svg="http://www.w3.org/2000/svg">
  <defs
     id="defs2886" />
  <g
     id="layer1"
     transform="translate(-53.99442,-26.482906)">
    <g
       aria-label="T"
       id="text6514"
       style="font-size:50.8px;font-family:'American Typewriter';-inkscape-font-specification:'American Typewriter';opacity:1;fill:#00a6d3;stroke-width:0.264583">
      <path
         d="m 66.595205,52.192964 q 0,1.575097 -0.545703,2.133203 -0.545704,0.558105 -1.5875,0.558105 -0.334864,0 -1.116211,-0.07441 -0.781348,-0.07441 -1.165821,-0.07441 -2.1208,0 -2.790527,1.872754 -0.310058,0.74414 -0.310058,1.624707 0,1.153418 0.5333,2.133203 0.533301,0.967383 1.401465,1.426269 0.843359,0.458887 2.331641,0.458887 1.079004,0 3.844726,-0.434082 2.778125,-0.434082 4.17959,-0.434082 0.731738,0 3.460254,0.483692 2.740918,0.483691 4.216797,0.483691 4.774902,0 4.774902,-4.167188 0,-1.984374 -0.719336,-2.716113 -0.706934,-0.731738 -1.971973,-0.731738 -0.496093,0 -1.463476,0.09922 -0.967383,0.09922 -1.389063,0.09922 -2.083593,0 -2.083593,-2.33164 V 34.966108 q 0,-0.607714 0.706933,-0.979785 0.719336,-0.384472 1.686719,-0.384472 1.041797,0 1.785937,0.458886 0.756543,0.458887 0.756543,1.314649 0,0.37207 -0.16123,0.818554 -0.198438,0.694532 -0.198438,1.971973 0,4.824512 3.398243,4.824512 2.530078,-0.173633 3.373437,-0.954981 0.843359,-0.781347 0.843359,-2.492871 0,-0.545703 -0.09922,-2.182812 -0.09922,-1.63711 -0.09922,-2.740918 0,-0.954981 0.198437,-2.753321 0.21084,-1.798339 0.21084,-2.641699 0,-1.351855 -0.471289,-2.046386 -0.471289,-0.694532 -1.761133,-0.694532 -0.272851,0 -0.967382,0.09922 -5.171778,0.620117 -13.468946,0.620117 -8.247558,0 -13.716992,-0.620117 -0.347265,-0.04961 -1.016992,-0.04961 -1.872754,0 -2.54248,0.781347 -0.657324,0.781348 -0.657324,2.480469 0,0.595313 0.21084,3.199805 0.04961,1.364258 0.04961,4.316015 0,2.790528 0.731738,4.241602 0.744141,1.438672 3.224609,1.438672 2.244825,-0.235645 3.075782,-1.190625 0.843359,-0.967383 0.843359,-2.517676 0,-0.731738 -0.186035,-1.971973 -0.173633,-1.240234 -0.173633,-1.736328 0,-1.525488 1.21543,-1.773535 0.818554,-0.198437 1.327051,-0.198437 2.282031,0 2.282031,2.988964 z"
         id="path9062" />
    </g>
  </g>
</svg>
