<svg width="295" height="295" viewBox="0 0 295 295" fill="none" xmlns="http://www.w3.org/2000/svg">
<rect x="5.0332" y="111.109" width="284.933" height="72.7807" rx="16" fill="#2FB9B5"/>
<mask id="path-2-outside-1_172_836" maskUnits="userSpaceOnUse" x="53.9951" y="130.143" width="147" height="35" fill="black">
<rect fill="white" x="53.9951" y="130.143" width="147" height="35"/>
<path d="M68.0425 142.21C68.0425 142.569 67.8997 142.901 67.614 143.205C67.3282 143.509 66.8917 143.661 66.3045 143.661C65.2092 143.661 64.1775 143.847 63.2093 144.22C62.241 144.593 61.3839 145.098 60.6379 145.733C59.9077 146.355 59.3363 147.08 58.9236 147.909C58.5109 148.752 58.3046 149.657 58.3046 150.624V161.858C58.3046 162.397 58.13 162.783 57.7808 163.018C57.4316 163.267 57.0506 163.391 56.6379 163.391C56.2253 163.391 55.8522 163.267 55.5189 163.018C55.1697 162.783 54.9951 162.397 54.9951 161.858V150.624C54.9951 149.257 55.2888 147.985 55.8761 146.811C56.4633 145.637 57.2729 144.6 58.3046 143.702C59.3363 142.804 60.5347 142.099 61.8998 141.588C63.2648 141.077 64.7331 140.821 66.3045 140.821C66.8917 140.821 67.3282 140.96 67.614 141.236L68.0425 142.21Z"/>
<path d="M90.0898 152.055C90.0898 150.894 89.8358 149.802 89.3279 148.78C88.82 147.771 88.1295 146.887 87.2565 146.127C86.3676 145.367 85.3438 144.766 84.1851 144.324C83.0105 143.882 81.7566 143.661 80.4233 143.661C79.1058 143.661 77.8678 143.882 76.709 144.324C75.5345 144.766 74.5186 145.367 73.6615 146.127C72.7885 146.887 72.098 147.771 71.5901 148.78C71.0822 149.802 70.8282 150.894 70.8282 152.055C70.8282 153.215 71.0822 154.307 71.5901 155.329C72.098 156.352 72.7885 157.243 73.6615 158.003C74.5186 158.763 75.5345 159.364 76.709 159.806C77.8678 160.248 79.1058 160.469 80.4233 160.469C81.7566 160.469 83.0105 160.248 84.1851 159.806C85.3438 159.364 86.3676 158.763 87.2565 158.003C88.1295 157.243 88.82 156.352 89.3279 155.329L90.0898 152.055ZM93.3992 161.775C93.3992 162.286 93.2246 162.666 92.8754 162.915C92.5262 163.177 92.1453 163.308 91.7326 163.308C91.3199 163.308 90.9469 163.177 90.6136 162.915C90.2644 162.666 90.0898 162.286 90.0898 161.775V159.578C88.8834 160.725 87.4549 161.63 85.8041 162.293C84.1534 162.97 82.3597 163.308 80.4233 163.308C79.2328 163.308 78.09 163.17 76.9947 162.894C75.8995 162.631 74.8757 162.251 73.9234 161.754C72.9551 161.27 72.0821 160.683 71.3044 159.992C70.5107 159.315 69.8361 158.555 69.2806 157.713C68.725 156.884 68.2965 155.992 67.9949 155.039C67.6774 154.086 67.5187 153.091 67.5187 152.055C67.5187 150.507 67.86 149.049 68.5425 147.681C69.2092 146.314 70.1298 145.118 71.3044 144.096C72.4631 143.087 73.8281 142.286 75.3995 141.692C76.9709 141.112 78.6455 140.821 80.4233 140.821C81.6137 140.821 82.7645 140.953 83.8756 141.215C84.9867 141.491 86.0263 141.871 86.9946 142.355C87.9469 142.839 88.82 143.419 89.6136 144.096C90.3914 144.787 91.0659 145.547 91.6374 146.376C92.1929 147.219 92.6294 148.117 92.9469 149.07C93.2484 150.023 93.3992 151.018 93.3992 152.055V161.775Z"/>
<path d="M119.137 161.858C119.137 162.397 118.962 162.783 118.613 163.018C118.264 163.267 117.883 163.391 117.47 163.391C117.058 163.391 116.677 163.267 116.327 163.018C115.978 162.783 115.804 162.397 115.804 161.858V150.624C115.804 149.671 115.597 148.766 115.185 147.909C114.772 147.067 114.208 146.327 113.494 145.692C112.764 145.07 111.923 144.573 110.97 144.2C110.002 143.84 108.97 143.661 107.875 143.661C106.78 143.661 105.748 143.84 104.78 144.2C103.796 144.573 102.947 145.07 102.232 145.692C101.502 146.327 100.931 147.067 100.518 147.909C100.09 148.766 99.8753 149.671 99.8753 150.624V161.858C99.8753 162.397 99.7007 162.783 99.3515 163.018C99.0023 163.267 98.6214 163.391 98.2087 163.391C97.796 163.391 97.423 163.267 97.0897 163.018C96.7405 162.783 96.5659 162.397 96.5659 161.858V150.624C96.5659 149.284 96.8674 148.013 97.4706 146.811C98.0579 145.623 98.8674 144.586 99.8991 143.702C100.931 142.818 102.129 142.113 103.494 141.588C104.859 141.077 106.32 140.821 107.875 140.821C109.415 140.821 110.875 141.077 112.256 141.588C113.621 142.113 114.812 142.818 115.827 143.702C116.843 144.586 117.653 145.623 118.256 146.811C118.843 148.013 119.137 149.284 119.137 150.624V161.858Z"/>
<path d="M139.375 156.904C139.375 157.844 139.168 158.707 138.756 159.495C138.327 160.283 137.764 160.96 137.065 161.526C136.351 162.093 135.526 162.528 134.589 162.832C133.637 163.15 132.637 163.308 131.589 163.308H124.018C123.43 163.308 122.994 163.156 122.708 162.853C122.423 162.549 122.28 162.217 122.28 161.858C122.28 161.498 122.423 161.174 122.708 160.884C122.994 160.607 123.43 160.469 124.018 160.469H131.589C132.176 160.469 132.74 160.386 133.28 160.22C133.819 160.055 134.295 159.813 134.708 159.495C135.121 159.191 135.454 158.818 135.708 158.376C135.946 157.947 136.065 157.457 136.065 156.904C136.065 156.283 135.891 155.702 135.541 155.163C135.192 154.625 134.684 154.238 134.018 154.003L126.708 151.433C125.454 150.991 124.462 150.314 123.732 149.402C122.986 148.49 122.613 147.454 122.613 146.293C122.613 145.478 122.811 144.732 123.208 144.055C123.589 143.377 124.105 142.797 124.756 142.314C125.407 141.844 126.153 141.478 126.994 141.215C127.835 140.953 128.7 140.821 129.589 140.821H136.256C136.843 140.821 137.287 140.96 137.589 141.236C137.875 141.526 138.018 141.851 138.018 142.21C138.018 142.569 137.875 142.901 137.589 143.205C137.287 143.509 136.843 143.661 136.256 143.661H129.589C129.145 143.661 128.708 143.716 128.28 143.827C127.835 143.951 127.438 144.124 127.089 144.345C126.74 144.58 126.462 144.856 126.256 145.174C126.034 145.505 125.923 145.878 125.923 146.293C125.923 146.873 126.105 147.371 126.47 147.785C126.835 148.213 127.319 148.538 127.922 148.759L135.279 151.329C135.914 151.55 136.486 151.854 136.994 152.241C137.502 152.628 137.93 153.063 138.279 153.547C138.629 154.044 138.898 154.576 139.089 155.143L139.375 156.904Z"/>
<path d="M145.827 161.858C145.827 162.397 145.652 162.783 145.303 163.018C144.954 163.267 144.573 163.391 144.16 163.391C143.748 163.391 143.375 163.267 143.041 163.018C142.692 162.783 142.517 162.397 142.517 161.858V132.656C142.517 132.144 142.692 131.764 143.041 131.516C143.375 131.267 143.748 131.143 144.16 131.143C144.573 131.143 144.954 131.267 145.303 131.516C145.652 131.764 145.827 132.144 145.827 132.656V161.858Z"/>
<path d="M171.517 152.055C171.517 150.894 171.263 149.802 170.755 148.78C170.247 147.771 169.557 146.887 168.684 146.127C167.795 145.367 166.771 144.766 165.612 144.324C164.438 143.882 163.184 143.661 161.85 143.661C160.533 143.661 159.295 143.882 158.136 144.324C156.962 144.766 155.946 145.367 155.089 146.127C154.216 146.887 153.525 147.771 153.017 148.78C152.509 149.802 152.255 150.894 152.255 152.055C152.255 153.215 152.509 154.307 153.017 155.329C153.525 156.352 154.216 157.243 155.089 158.003C155.946 158.763 156.962 159.364 158.136 159.806C159.295 160.248 160.533 160.469 161.85 160.469C163.184 160.469 164.438 160.248 165.612 159.806C166.771 159.364 167.795 158.763 168.684 158.003C169.557 157.243 170.247 156.352 170.755 155.329L171.517 152.055ZM174.826 161.775C174.826 162.286 174.652 162.666 174.303 162.915C173.953 163.177 173.572 163.308 173.16 163.308C172.747 163.308 172.374 163.177 172.041 162.915C171.692 162.666 171.517 162.286 171.517 161.775V159.578C170.311 160.725 168.882 161.63 167.231 162.293C165.581 162.97 163.787 163.308 161.85 163.308C160.66 163.308 159.517 163.17 158.422 162.894C157.327 162.631 156.303 162.251 155.351 161.754C154.382 161.27 153.509 160.683 152.732 159.992C151.938 159.315 151.263 158.555 150.708 157.713C150.152 156.884 149.724 155.992 149.422 155.039C149.105 154.086 148.946 153.091 148.946 152.055C148.946 150.507 149.287 149.049 149.97 147.681C150.636 146.314 151.557 145.118 152.732 144.096C153.89 143.087 155.255 142.286 156.827 141.692C158.398 141.112 160.073 140.821 161.85 140.821C163.041 140.821 164.192 140.953 165.303 141.215C166.414 141.491 167.454 141.871 168.422 142.355C169.374 142.839 170.247 143.419 171.041 144.096C171.819 144.787 172.493 145.547 173.065 146.376C173.62 147.219 174.057 148.117 174.374 149.07C174.676 150.023 174.826 151.018 174.826 152.055V161.775Z"/>
<path d="M191.136 142.21C191.136 142.569 190.993 142.901 190.707 143.205C190.421 143.509 189.985 143.661 189.398 143.661H181.303V153.588C181.303 154.528 181.509 155.412 181.922 156.241C182.318 157.07 182.874 157.795 183.588 158.417C184.318 159.039 185.16 159.536 186.112 159.909C187.064 160.283 188.096 160.469 189.207 160.469C189.794 160.469 190.231 160.614 190.517 160.904C190.802 161.208 190.945 161.526 190.945 161.858C190.945 162.217 190.802 162.549 190.517 162.853C190.231 163.156 189.794 163.308 189.207 163.308C187.636 163.308 186.175 163.053 184.826 162.542C183.477 162.03 182.303 161.34 181.303 160.469C180.271 159.571 179.461 158.535 178.874 157.36C178.287 156.186 177.993 154.928 177.993 153.588V132.656C177.993 132.144 178.168 131.764 178.517 131.516C178.85 131.267 179.223 131.143 179.636 131.143C180.049 131.143 180.43 131.267 180.779 131.516C181.128 131.764 181.303 132.144 181.303 132.656V140.821H189.398C189.985 140.821 190.421 140.96 190.707 141.236L191.136 142.21Z"/>
<path d="M198.469 161.858C198.469 162.397 198.294 162.783 197.945 163.018C197.596 163.267 197.215 163.391 196.802 163.391C196.39 163.391 196.009 163.267 195.659 163.018C195.31 162.783 195.136 162.397 195.136 161.858V142.21C195.136 141.699 195.31 141.312 195.659 141.049C196.009 140.801 196.39 140.676 196.802 140.676C197.215 140.676 197.596 140.801 197.945 141.049C198.294 141.312 198.469 141.699 198.469 142.21V161.858ZM199.35 135.557C199.35 135.847 199.286 136.124 199.159 136.386C199.017 136.662 198.834 136.897 198.612 137.091C198.374 137.298 198.104 137.457 197.802 137.567C197.485 137.692 197.151 137.754 196.802 137.754C196.453 137.754 196.128 137.692 195.826 137.567C195.509 137.457 195.239 137.298 195.017 137.091C194.794 136.897 194.62 136.662 194.493 136.386C194.35 136.124 194.279 135.847 194.279 135.557C194.279 135.253 194.35 134.963 194.493 134.687C194.62 134.41 194.794 134.168 195.017 133.961C195.239 133.754 195.509 133.588 195.826 133.464C196.128 133.353 196.453 133.298 196.802 133.298C197.151 133.298 197.485 133.353 197.802 133.464C198.104 133.588 198.374 133.754 198.612 133.961C198.834 134.168 199.017 134.41 199.159 134.687L199.35 135.557Z"/>
</mask>
<path d="M68.0425 142.21C68.0425 142.569 67.8997 142.901 67.614 143.205C67.3282 143.509 66.8917 143.661 66.3045 143.661C65.2092 143.661 64.1775 143.847 63.2093 144.22C62.241 144.593 61.3839 145.098 60.6379 145.733C59.9077 146.355 59.3363 147.08 58.9236 147.909C58.5109 148.752 58.3046 149.657 58.3046 150.624V161.858C58.3046 162.397 58.13 162.783 57.7808 163.018C57.4316 163.267 57.0506 163.391 56.6379 163.391C56.2253 163.391 55.8522 163.267 55.5189 163.018C55.1697 162.783 54.9951 162.397 54.9951 161.858V150.624C54.9951 149.257 55.2888 147.985 55.8761 146.811C56.4633 145.637 57.2729 144.6 58.3046 143.702C59.3363 142.804 60.5347 142.099 61.8998 141.588C63.2648 141.077 64.7331 140.821 66.3045 140.821C66.8917 140.821 67.3282 140.96 67.614 141.236L68.0425 142.21Z" fill="white"/>
<path d="M90.0898 152.055C90.0898 150.894 89.8358 149.802 89.3279 148.78C88.82 147.771 88.1295 146.887 87.2565 146.127C86.3676 145.367 85.3438 144.766 84.1851 144.324C83.0105 143.882 81.7566 143.661 80.4233 143.661C79.1058 143.661 77.8678 143.882 76.709 144.324C75.5345 144.766 74.5186 145.367 73.6615 146.127C72.7885 146.887 72.098 147.771 71.5901 148.78C71.0822 149.802 70.8282 150.894 70.8282 152.055C70.8282 153.215 71.0822 154.307 71.5901 155.329C72.098 156.352 72.7885 157.243 73.6615 158.003C74.5186 158.763 75.5345 159.364 76.709 159.806C77.8678 160.248 79.1058 160.469 80.4233 160.469C81.7566 160.469 83.0105 160.248 84.1851 159.806C85.3438 159.364 86.3676 158.763 87.2565 158.003C88.1295 157.243 88.82 156.352 89.3279 155.329L90.0898 152.055ZM93.3992 161.775C93.3992 162.286 93.2246 162.666 92.8754 162.915C92.5262 163.177 92.1453 163.308 91.7326 163.308C91.3199 163.308 90.9469 163.177 90.6136 162.915C90.2644 162.666 90.0898 162.286 90.0898 161.775V159.578C88.8834 160.725 87.4549 161.63 85.8041 162.293C84.1534 162.97 82.3597 163.308 80.4233 163.308C79.2328 163.308 78.09 163.17 76.9947 162.894C75.8995 162.631 74.8757 162.251 73.9234 161.754C72.9551 161.27 72.0821 160.683 71.3044 159.992C70.5107 159.315 69.8361 158.555 69.2806 157.713C68.725 156.884 68.2965 155.992 67.9949 155.039C67.6774 154.086 67.5187 153.091 67.5187 152.055C67.5187 150.507 67.86 149.049 68.5425 147.681C69.2092 146.314 70.1298 145.118 71.3044 144.096C72.4631 143.087 73.8281 142.286 75.3995 141.692C76.9709 141.112 78.6455 140.821 80.4233 140.821C81.6137 140.821 82.7645 140.953 83.8756 141.215C84.9867 141.491 86.0263 141.871 86.9946 142.355C87.9469 142.839 88.82 143.419 89.6136 144.096C90.3914 144.787 91.0659 145.547 91.6374 146.376C92.1929 147.219 92.6294 148.117 92.9469 149.07C93.2484 150.023 93.3992 151.018 93.3992 152.055V161.775Z" fill="white"/>
<path d="M119.137 161.858C119.137 162.397 118.962 162.783 118.613 163.018C118.264 163.267 117.883 163.391 117.47 163.391C117.058 163.391 116.677 163.267 116.327 163.018C115.978 162.783 115.804 162.397 115.804 161.858V150.624C115.804 149.671 115.597 148.766 115.185 147.909C114.772 147.067 114.208 146.327 113.494 145.692C112.764 145.07 111.923 144.573 110.97 144.2C110.002 143.84 108.97 143.661 107.875 143.661C106.78 143.661 105.748 143.84 104.78 144.2C103.796 144.573 102.947 145.07 102.232 145.692C101.502 146.327 100.931 147.067 100.518 147.909C100.09 148.766 99.8753 149.671 99.8753 150.624V161.858C99.8753 162.397 99.7007 162.783 99.3515 163.018C99.0023 163.267 98.6214 163.391 98.2087 163.391C97.796 163.391 97.423 163.267 97.0897 163.018C96.7405 162.783 96.5659 162.397 96.5659 161.858V150.624C96.5659 149.284 96.8674 148.013 97.4706 146.811C98.0579 145.623 98.8674 144.586 99.8991 143.702C100.931 142.818 102.129 142.113 103.494 141.588C104.859 141.077 106.32 140.821 107.875 140.821C109.415 140.821 110.875 141.077 112.256 141.588C113.621 142.113 114.812 142.818 115.827 143.702C116.843 144.586 117.653 145.623 118.256 146.811C118.843 148.013 119.137 149.284 119.137 150.624V161.858Z" fill="white"/>
<path d="M139.375 156.904C139.375 157.844 139.168 158.707 138.756 159.495C138.327 160.283 137.764 160.96 137.065 161.526C136.351 162.093 135.526 162.528 134.589 162.832C133.637 163.15 132.637 163.308 131.589 163.308H124.018C123.43 163.308 122.994 163.156 122.708 162.853C122.423 162.549 122.28 162.217 122.28 161.858C122.28 161.498 122.423 161.174 122.708 160.884C122.994 160.607 123.43 160.469 124.018 160.469H131.589C132.176 160.469 132.74 160.386 133.28 160.22C133.819 160.055 134.295 159.813 134.708 159.495C135.121 159.191 135.454 158.818 135.708 158.376C135.946 157.947 136.065 157.457 136.065 156.904C136.065 156.283 135.891 155.702 135.541 155.163C135.192 154.625 134.684 154.238 134.018 154.003L126.708 151.433C125.454 150.991 124.462 150.314 123.732 149.402C122.986 148.49 122.613 147.454 122.613 146.293C122.613 145.478 122.811 144.732 123.208 144.055C123.589 143.377 124.105 142.797 124.756 142.314C125.407 141.844 126.153 141.478 126.994 141.215C127.835 140.953 128.7 140.821 129.589 140.821H136.256C136.843 140.821 137.287 140.96 137.589 141.236C137.875 141.526 138.018 141.851 138.018 142.21C138.018 142.569 137.875 142.901 137.589 143.205C137.287 143.509 136.843 143.661 136.256 143.661H129.589C129.145 143.661 128.708 143.716 128.28 143.827C127.835 143.951 127.438 144.124 127.089 144.345C126.74 144.58 126.462 144.856 126.256 145.174C126.034 145.505 125.923 145.878 125.923 146.293C125.923 146.873 126.105 147.371 126.47 147.785C126.835 148.213 127.319 148.538 127.922 148.759L135.279 151.329C135.914 151.55 136.486 151.854 136.994 152.241C137.502 152.628 137.93 153.063 138.279 153.547C138.629 154.044 138.898 154.576 139.089 155.143L139.375 156.904Z" fill="white"/>
<path d="M145.827 161.858C145.827 162.397 145.652 162.783 145.303 163.018C144.954 163.267 144.573 163.391 144.16 163.391C143.748 163.391 143.375 163.267 143.041 163.018C142.692 162.783 142.517 162.397 142.517 161.858V132.656C142.517 132.144 142.692 131.764 143.041 131.516C143.375 131.267 143.748 131.143 144.16 131.143C144.573 131.143 144.954 131.267 145.303 131.516C145.652 131.764 145.827 132.144 145.827 132.656V161.858Z" fill="white"/>
<path d="M171.517 152.055C171.517 150.894 171.263 149.802 170.755 148.78C170.247 147.771 169.557 146.887 168.684 146.127C167.795 145.367 166.771 144.766 165.612 144.324C164.438 143.882 163.184 143.661 161.85 143.661C160.533 143.661 159.295 143.882 158.136 144.324C156.962 144.766 155.946 145.367 155.089 146.127C154.216 146.887 153.525 147.771 153.017 148.78C152.509 149.802 152.255 150.894 152.255 152.055C152.255 153.215 152.509 154.307 153.017 155.329C153.525 156.352 154.216 157.243 155.089 158.003C155.946 158.763 156.962 159.364 158.136 159.806C159.295 160.248 160.533 160.469 161.85 160.469C163.184 160.469 164.438 160.248 165.612 159.806C166.771 159.364 167.795 158.763 168.684 158.003C169.557 157.243 170.247 156.352 170.755 155.329L171.517 152.055ZM174.826 161.775C174.826 162.286 174.652 162.666 174.303 162.915C173.953 163.177 173.572 163.308 173.16 163.308C172.747 163.308 172.374 163.177 172.041 162.915C171.692 162.666 171.517 162.286 171.517 161.775V159.578C170.311 160.725 168.882 161.63 167.231 162.293C165.581 162.97 163.787 163.308 161.85 163.308C160.66 163.308 159.517 163.17 158.422 162.894C157.327 162.631 156.303 162.251 155.351 161.754C154.382 161.27 153.509 160.683 152.732 159.992C151.938 159.315 151.263 158.555 150.708 157.713C150.152 156.884 149.724 155.992 149.422 155.039C149.105 154.086 148.946 153.091 148.946 152.055C148.946 150.507 149.287 149.049 149.97 147.681C150.636 146.314 151.557 145.118 152.732 144.096C153.89 143.087 155.255 142.286 156.827 141.692C158.398 141.112 160.073 140.821 161.85 140.821C163.041 140.821 164.192 140.953 165.303 141.215C166.414 141.491 167.454 141.871 168.422 142.355C169.374 142.839 170.247 143.419 171.041 144.096C171.819 144.787 172.493 145.547 173.065 146.376C173.62 147.219 174.057 148.117 174.374 149.07C174.676 150.023 174.826 151.018 174.826 152.055V161.775Z" fill="white"/>
<path d="M191.136 142.21C191.136 142.569 190.993 142.901 190.707 143.205C190.421 143.509 189.985 143.661 189.398 143.661H181.303V153.588C181.303 154.528 181.509 155.412 181.922 156.241C182.318 157.07 182.874 157.795 183.588 158.417C184.318 159.039 185.16 159.536 186.112 159.909C187.064 160.283 188.096 160.469 189.207 160.469C189.794 160.469 190.231 160.614 190.517 160.904C190.802 161.208 190.945 161.526 190.945 161.858C190.945 162.217 190.802 162.549 190.517 162.853C190.231 163.156 189.794 163.308 189.207 163.308C187.636 163.308 186.175 163.053 184.826 162.542C183.477 162.03 182.303 161.34 181.303 160.469C180.271 159.571 179.461 158.535 178.874 157.36C178.287 156.186 177.993 154.928 177.993 153.588V132.656C177.993 132.144 178.168 131.764 178.517 131.516C178.85 131.267 179.223 131.143 179.636 131.143C180.049 131.143 180.43 131.267 180.779 131.516C181.128 131.764 181.303 132.144 181.303 132.656V140.821H189.398C189.985 140.821 190.421 140.96 190.707 141.236L191.136 142.21Z" fill="white"/>
<path d="M198.469 161.858C198.469 162.397 198.294 162.783 197.945 163.018C197.596 163.267 197.215 163.391 196.802 163.391C196.39 163.391 196.009 163.267 195.659 163.018C195.31 162.783 195.136 162.397 195.136 161.858V142.21C195.136 141.699 195.31 141.312 195.659 141.049C196.009 140.801 196.39 140.676 196.802 140.676C197.215 140.676 197.596 140.801 197.945 141.049C198.294 141.312 198.469 141.699 198.469 142.21V161.858ZM199.35 135.557C199.35 135.847 199.286 136.124 199.159 136.386C199.017 136.662 198.834 136.897 198.612 137.091C198.374 137.298 198.104 137.457 197.802 137.567C197.485 137.692 197.151 137.754 196.802 137.754C196.453 137.754 196.128 137.692 195.826 137.567C195.509 137.457 195.239 137.298 195.017 137.091C194.794 136.897 194.62 136.662 194.493 136.386C194.35 136.124 194.279 135.847 194.279 135.557C194.279 135.253 194.35 134.963 194.493 134.687C194.62 134.41 194.794 134.168 195.017 133.961C195.239 133.754 195.509 133.588 195.826 133.464C196.128 133.353 196.453 133.298 196.802 133.298C197.151 133.298 197.485 133.353 197.802 133.464C198.104 133.588 198.374 133.754 198.612 133.961C198.834 134.168 199.017 134.41 199.159 134.687L199.35 135.557Z" fill="white"/>
<path d="M68.0425 142.21C68.0425 142.569 67.8997 142.901 67.614 143.205C67.3282 143.509 66.8917 143.661 66.3045 143.661C65.2092 143.661 64.1775 143.847 63.2093 144.22C62.241 144.593 61.3839 145.098 60.6379 145.733C59.9077 146.355 59.3363 147.08 58.9236 147.909C58.5109 148.752 58.3046 149.657 58.3046 150.624V161.858C58.3046 162.397 58.13 162.783 57.7808 163.018C57.4316 163.267 57.0506 163.391 56.6379 163.391C56.2253 163.391 55.8522 163.267 55.5189 163.018C55.1697 162.783 54.9951 162.397 54.9951 161.858V150.624C54.9951 149.257 55.2888 147.985 55.8761 146.811C56.4633 145.637 57.2729 144.6 58.3046 143.702C59.3363 142.804 60.5347 142.099 61.8998 141.588C63.2648 141.077 64.7331 140.821 66.3045 140.821C66.8917 140.821 67.3282 140.96 67.614 141.236L68.0425 142.21Z" stroke="white" stroke-width="2" mask="url(#path-2-outside-1_172_836)"/>
<path d="M90.0898 152.055C90.0898 150.894 89.8358 149.802 89.3279 148.78C88.82 147.771 88.1295 146.887 87.2565 146.127C86.3676 145.367 85.3438 144.766 84.1851 144.324C83.0105 143.882 81.7566 143.661 80.4233 143.661C79.1058 143.661 77.8678 143.882 76.709 144.324C75.5345 144.766 74.5186 145.367 73.6615 146.127C72.7885 146.887 72.098 147.771 71.5901 148.78C71.0822 149.802 70.8282 150.894 70.8282 152.055C70.8282 153.215 71.0822 154.307 71.5901 155.329C72.098 156.352 72.7885 157.243 73.6615 158.003C74.5186 158.763 75.5345 159.364 76.709 159.806C77.8678 160.248 79.1058 160.469 80.4233 160.469C81.7566 160.469 83.0105 160.248 84.1851 159.806C85.3438 159.364 86.3676 158.763 87.2565 158.003C88.1295 157.243 88.82 156.352 89.3279 155.329L90.0898 152.055ZM93.3992 161.775C93.3992 162.286 93.2246 162.666 92.8754 162.915C92.5262 163.177 92.1453 163.308 91.7326 163.308C91.3199 163.308 90.9469 163.177 90.6136 162.915C90.2644 162.666 90.0898 162.286 90.0898 161.775V159.578C88.8834 160.725 87.4549 161.63 85.8041 162.293C84.1534 162.97 82.3597 163.308 80.4233 163.308C79.2328 163.308 78.09 163.17 76.9947 162.894C75.8995 162.631 74.8757 162.251 73.9234 161.754C72.9551 161.27 72.0821 160.683 71.3044 159.992C70.5107 159.315 69.8361 158.555 69.2806 157.713C68.725 156.884 68.2965 155.992 67.9949 155.039C67.6774 154.086 67.5187 153.091 67.5187 152.055C67.5187 150.507 67.86 149.049 68.5425 147.681C69.2092 146.314 70.1298 145.118 71.3044 144.096C72.4631 143.087 73.8281 142.286 75.3995 141.692C76.9709 141.112 78.6455 140.821 80.4233 140.821C81.6137 140.821 82.7645 140.953 83.8756 141.215C84.9867 141.491 86.0263 141.871 86.9946 142.355C87.9469 142.839 88.82 143.419 89.6136 144.096C90.3914 144.787 91.0659 145.547 91.6374 146.376C92.1929 147.219 92.6294 148.117 92.9469 149.07C93.2484 150.023 93.3992 151.018 93.3992 152.055V161.775Z" stroke="white" stroke-width="2" mask="url(#path-2-outside-1_172_836)"/>
<path d="M119.137 161.858C119.137 162.397 118.962 162.783 118.613 163.018C118.264 163.267 117.883 163.391 117.47 163.391C117.058 163.391 116.677 163.267 116.327 163.018C115.978 162.783 115.804 162.397 115.804 161.858V150.624C115.804 149.671 115.597 148.766 115.185 147.909C114.772 147.067 114.208 146.327 113.494 145.692C112.764 145.07 111.923 144.573 110.97 144.2C110.002 143.84 108.97 143.661 107.875 143.661C106.78 143.661 105.748 143.84 104.78 144.2C103.796 144.573 102.947 145.07 102.232 145.692C101.502 146.327 100.931 147.067 100.518 147.909C100.09 148.766 99.8753 149.671 99.8753 150.624V161.858C99.8753 162.397 99.7007 162.783 99.3515 163.018C99.0023 163.267 98.6214 163.391 98.2087 163.391C97.796 163.391 97.423 163.267 97.0897 163.018C96.7405 162.783 96.5659 162.397 96.5659 161.858V150.624C96.5659 149.284 96.8674 148.013 97.4706 146.811C98.0579 145.623 98.8674 144.586 99.8991 143.702C100.931 142.818 102.129 142.113 103.494 141.588C104.859 141.077 106.32 140.821 107.875 140.821C109.415 140.821 110.875 141.077 112.256 141.588C113.621 142.113 114.812 142.818 115.827 143.702C116.843 144.586 117.653 145.623 118.256 146.811C118.843 148.013 119.137 149.284 119.137 150.624V161.858Z" stroke="white" stroke-width="2" mask="url(#path-2-outside-1_172_836)"/>
<path d="M139.375 156.904C139.375 157.844 139.168 158.707 138.756 159.495C138.327 160.283 137.764 160.96 137.065 161.526C136.351 162.093 135.526 162.528 134.589 162.832C133.637 163.15 132.637 163.308 131.589 163.308H124.018C123.43 163.308 122.994 163.156 122.708 162.853C122.423 162.549 122.28 162.217 122.28 161.858C122.28 161.498 122.423 161.174 122.708 160.884C122.994 160.607 123.43 160.469 124.018 160.469H131.589C132.176 160.469 132.74 160.386 133.28 160.22C133.819 160.055 134.295 159.813 134.708 159.495C135.121 159.191 135.454 158.818 135.708 158.376C135.946 157.947 136.065 157.457 136.065 156.904C136.065 156.283 135.891 155.702 135.541 155.163C135.192 154.625 134.684 154.238 134.018 154.003L126.708 151.433C125.454 150.991 124.462 150.314 123.732 149.402C122.986 148.49 122.613 147.454 122.613 146.293C122.613 145.478 122.811 144.732 123.208 144.055C123.589 143.377 124.105 142.797 124.756 142.314C125.407 141.844 126.153 141.478 126.994 141.215C127.835 140.953 128.7 140.821 129.589 140.821H136.256C136.843 140.821 137.287 140.96 137.589 141.236C137.875 141.526 138.018 141.851 138.018 142.21C138.018 142.569 137.875 142.901 137.589 143.205C137.287 143.509 136.843 143.661 136.256 143.661H129.589C129.145 143.661 128.708 143.716 128.28 143.827C127.835 143.951 127.438 144.124 127.089 144.345C126.74 144.58 126.462 144.856 126.256 145.174C126.034 145.505 125.923 145.878 125.923 146.293C125.923 146.873 126.105 147.371 126.47 147.785C126.835 148.213 127.319 148.538 127.922 148.759L135.279 151.329C135.914 151.55 136.486 151.854 136.994 152.241C137.502 152.628 137.93 153.063 138.279 153.547C138.629 154.044 138.898 154.576 139.089 155.143L139.375 156.904Z" stroke="white" stroke-width="2" mask="url(#path-2-outside-1_172_836)"/>
<path d="M145.827 161.858C145.827 162.397 145.652 162.783 145.303 163.018C144.954 163.267 144.573 163.391 144.16 163.391C143.748 163.391 143.375 163.267 143.041 163.018C142.692 162.783 142.517 162.397 142.517 161.858V132.656C142.517 132.144 142.692 131.764 143.041 131.516C143.375 131.267 143.748 131.143 144.16 131.143C144.573 131.143 144.954 131.267 145.303 131.516C145.652 131.764 145.827 132.144 145.827 132.656V161.858Z" stroke="white" stroke-width="2" mask="url(#path-2-outside-1_172_836)"/>
<path d="M171.517 152.055C171.517 150.894 171.263 149.802 170.755 148.78C170.247 147.771 169.557 146.887 168.684 146.127C167.795 145.367 166.771 144.766 165.612 144.324C164.438 143.882 163.184 143.661 161.85 143.661C160.533 143.661 159.295 143.882 158.136 144.324C156.962 144.766 155.946 145.367 155.089 146.127C154.216 146.887 153.525 147.771 153.017 148.78C152.509 149.802 152.255 150.894 152.255 152.055C152.255 153.215 152.509 154.307 153.017 155.329C153.525 156.352 154.216 157.243 155.089 158.003C155.946 158.763 156.962 159.364 158.136 159.806C159.295 160.248 160.533 160.469 161.85 160.469C163.184 160.469 164.438 160.248 165.612 159.806C166.771 159.364 167.795 158.763 168.684 158.003C169.557 157.243 170.247 156.352 170.755 155.329L171.517 152.055ZM174.826 161.775C174.826 162.286 174.652 162.666 174.303 162.915C173.953 163.177 173.572 163.308 173.16 163.308C172.747 163.308 172.374 163.177 172.041 162.915C171.692 162.666 171.517 162.286 171.517 161.775V159.578C170.311 160.725 168.882 161.63 167.231 162.293C165.581 162.97 163.787 163.308 161.85 163.308C160.66 163.308 159.517 163.17 158.422 162.894C157.327 162.631 156.303 162.251 155.351 161.754C154.382 161.27 153.509 160.683 152.732 159.992C151.938 159.315 151.263 158.555 150.708 157.713C150.152 156.884 149.724 155.992 149.422 155.039C149.105 154.086 148.946 153.091 148.946 152.055C148.946 150.507 149.287 149.049 149.97 147.681C150.636 146.314 151.557 145.118 152.732 144.096C153.89 143.087 155.255 142.286 156.827 141.692C158.398 141.112 160.073 140.821 161.85 140.821C163.041 140.821 164.192 140.953 165.303 141.215C166.414 141.491 167.454 141.871 168.422 142.355C169.374 142.839 170.247 143.419 171.041 144.096C171.819 144.787 172.493 145.547 173.065 146.376C173.62 147.219 174.057 148.117 174.374 149.07C174.676 150.023 174.826 151.018 174.826 152.055V161.775Z" stroke="white" stroke-width="2" mask="url(#path-2-outside-1_172_836)"/>
<path d="M191.136 142.21C191.136 142.569 190.993 142.901 190.707 143.205C190.421 143.509 189.985 143.661 189.398 143.661H181.303V153.588C181.303 154.528 181.509 155.412 181.922 156.241C182.318 157.07 182.874 157.795 183.588 158.417C184.318 159.039 185.16 159.536 186.112 159.909C187.064 160.283 188.096 160.469 189.207 160.469C189.794 160.469 190.231 160.614 190.517 160.904C190.802 161.208 190.945 161.526 190.945 161.858C190.945 162.217 190.802 162.549 190.517 162.853C190.231 163.156 189.794 163.308 189.207 163.308C187.636 163.308 186.175 163.053 184.826 162.542C183.477 162.03 182.303 161.34 181.303 160.469C180.271 159.571 179.461 158.535 178.874 157.36C178.287 156.186 177.993 154.928 177.993 153.588V132.656C177.993 132.144 178.168 131.764 178.517 131.516C178.85 131.267 179.223 131.143 179.636 131.143C180.049 131.143 180.43 131.267 180.779 131.516C181.128 131.764 181.303 132.144 181.303 132.656V140.821H189.398C189.985 140.821 190.421 140.96 190.707 141.236L191.136 142.21Z" stroke="white" stroke-width="2" mask="url(#path-2-outside-1_172_836)"/>
<path d="M198.469 161.858C198.469 162.397 198.294 162.783 197.945 163.018C197.596 163.267 197.215 163.391 196.802 163.391C196.39 163.391 196.009 163.267 195.659 163.018C195.31 162.783 195.136 162.397 195.136 161.858V142.21C195.136 141.699 195.31 141.312 195.659 141.049C196.009 140.801 196.39 140.676 196.802 140.676C197.215 140.676 197.596 140.801 197.945 141.049C198.294 141.312 198.469 141.699 198.469 142.21V161.858ZM199.35 135.557C199.35 135.847 199.286 136.124 199.159 136.386C199.017 136.662 198.834 136.897 198.612 137.091C198.374 137.298 198.104 137.457 197.802 137.567C197.485 137.692 197.151 137.754 196.802 137.754C196.453 137.754 196.128 137.692 195.826 137.567C195.509 137.457 195.239 137.298 195.017 137.091C194.794 136.897 194.62 136.662 194.493 136.386C194.35 136.124 194.279 135.847 194.279 135.557C194.279 135.253 194.35 134.963 194.493 134.687C194.62 134.41 194.794 134.168 195.017 133.961C195.239 133.754 195.509 133.588 195.826 133.464C196.128 133.353 196.453 133.298 196.802 133.298C197.151 133.298 197.485 133.353 197.802 133.464C198.104 133.588 198.374 133.754 198.612 133.961C198.834 134.168 199.017 134.41 199.159 134.687L199.35 135.557Z" stroke="white" stroke-width="2" mask="url(#path-2-outside-1_172_836)"/>
<path d="M201.386 151.766C201.386 145.318 206.613 140.091 213.061 140.091H246.291C252.739 140.091 257.966 145.318 257.966 151.766C257.966 158.214 252.739 163.441 246.291 163.441H213.061C206.613 163.441 201.386 158.214 201.386 151.766Z" fill="white"/>
<path d="M222.042 151.766C222.042 156.726 218.021 160.747 213.061 160.747C208.101 160.747 204.08 156.726 204.08 151.766C204.08 146.806 208.101 142.785 213.061 142.785C218.021 142.785 222.042 146.806 222.042 151.766Z" fill="#2FB9B5"/>
<path d="M59.1706 135.562C57.0702 135.562 44.2698 135.785 44.2698 135.785L51.0429 142.242C51.0429 142.242 49.5733 147.017 47.6792 145.357C45.7851 143.696 40.2825 138.31 38.1741 136.23C36.0657 134.151 37.0453 131.109 39.7546 131.109H58.7191C60.8195 131.109 61.271 135.562 59.1706 135.562Z" fill="white"/>
<path d="M52.172 161.389L52.172 151.72C50.3205 150.597 49.2824 151.102 47.4309 149.979L47.4309 161.389C47.431 164.724 52.172 164.724 52.172 161.389Z" fill="white"/>
<path d="M52.172 149.641L52.172 159.31C50.3205 160.434 49.2824 159.928 47.4309 161.051L47.4309 149.641C47.431 146.306 52.172 146.306 52.172 149.641Z" fill="white"/>
<path d="M50.6949 141.833L43.7505 135.325L39.3034 137.343C39.3034 137.343 45.0108 143.013 47.4327 145.219C49.8546 147.425 53.0899 144.078 50.6949 141.833Z" fill="white"/>
<path d="M58.7168 131.11L48.9122 131.11L47.1288 135.263C47.1288 135.263 55.2579 135.83 58.7168 135.782C62.1757 135.735 62.0982 131.11 58.7168 131.11Z" fill="white"/>
<path d="M46.8047 131.109L56.6092 131.109C57.7483 132.934 57.2355 133.957 58.3746 135.782C58.3746 135.782 49.361 135.73 45.9796 135.73C42.5981 135.73 43.4233 131.109 46.8047 131.109Z" fill="white"/>
</svg>
