<svg width="295" height="295" viewBox="0 0 295 295" fill="none" xmlns="http://www.w3.org/2000/svg">
<rect width="295" height="295" rx="147.5" fill="#2FB9B5"/>
<path d="M207.354 75.1879C194.806 75.1879 118.336 76.5366 118.336 76.5366L158.799 115.65C158.799 115.65 150.019 144.576 138.704 134.518C127.388 124.46 94.5159 91.8312 81.9203 79.2341C69.3248 66.6371 75.1766 48.2129 91.362 48.2129H204.656C217.204 48.2129 219.902 75.1879 207.354 75.1879Z" fill="white" stroke="white"/>
<path d="M165.547 231.639L165.547 173.067C154.486 166.262 148.285 169.326 137.224 162.521C137.224 162.521 137.224 211.439 137.224 231.639C137.224 251.84 165.547 251.84 165.547 231.639Z" fill="white" stroke="white"/>
<path d="M165.547 160.474L165.547 219.047C154.486 225.852 148.285 222.788 137.224 229.593C137.224 229.593 137.224 180.675 137.224 160.474C137.224 140.273 165.547 140.273 165.547 160.474Z" fill="white" stroke="white"/>
<circle cx="151.393" cy="232.641" r="10.79" fill="#2FB9B5"/>
<path d="M156.721 113.175L115.235 73.7506L88.6678 85.9758C88.6678 85.9758 122.764 120.318 137.232 133.682C151.701 147.046 171.028 126.772 156.721 113.175Z" fill="white" stroke="white"/>
<path d="M204.572 48.2134L145.999 48.2134L135.345 73.3738C135.345 73.3738 183.908 76.8062 204.572 76.5189C225.235 76.2315 224.772 48.2134 204.572 48.2134Z" fill="white" stroke="white"/>
<path d="M133.407 48.2107L191.979 48.2107C198.784 59.2648 195.72 65.4625 202.525 76.5166C202.525 76.5166 148.678 76.2018 128.477 76.2015C108.277 76.2012 113.206 48.2107 133.407 48.2107Z" fill="white" stroke="white"/>
<circle cx="205.665" cy="62.375" r="10.79" fill="#2FB9B5"/>
<circle cx="205.665" cy="62.375" r="10.79" fill="#2FB9B5"/>
</svg>
