<svg width="295" height="295" viewBox="0 0 295 295" fill="none" xmlns="http://www.w3.org/2000/svg">
<rect width="295" height="295" rx="147.5" fill="#2FB9B5"/>
<mask id="path-2-outside-1_172_717" maskUnits="userSpaceOnUse" x="40.3594" y="127.731" width="168" height="40" fill="black">
<rect fill="white" x="40.3594" y="127.731" width="168" height="40"/>
<path d="M56.33 141.43C56.33 141.842 56.1661 142.223 55.8383 142.572C55.5105 142.92 55.0096 143.095 54.3358 143.095C53.0791 143.095 51.8953 143.309 50.7843 143.737C49.6734 144.165 48.6899 144.744 47.8339 145.473C46.9961 146.186 46.3405 147.019 45.867 147.97C45.3934 148.937 45.1567 149.975 45.1567 151.085V163.974C45.1567 164.592 44.9563 165.036 44.5557 165.306C44.155 165.591 43.7179 165.734 43.2444 165.734C42.7708 165.734 42.3428 165.591 41.9604 165.306C41.5597 165.036 41.3594 164.592 41.3594 163.974V151.085C41.3594 149.516 41.6963 148.057 42.3702 146.709C43.044 145.362 43.9729 144.173 45.1567 143.142C46.3405 142.112 47.7155 141.303 49.2818 140.717C50.8481 140.13 52.5327 139.837 54.3358 139.837C55.0096 139.837 55.5105 139.995 55.8383 140.313L56.33 141.43Z"/>
<path d="M81.6272 152.726C81.6272 151.394 81.3358 150.142 80.753 148.969C80.1702 147.811 79.3779 146.797 78.3762 145.925C77.3563 145.053 76.1816 144.363 74.8521 143.856C73.5044 143.349 72.0656 143.095 70.5358 143.095C69.0241 143.095 67.6036 143.349 66.2741 143.856C64.9263 144.363 63.7607 145.053 62.7773 145.925C61.7756 146.797 60.9833 147.811 60.4005 148.969C59.8177 150.142 59.5263 151.394 59.5263 152.726C59.5263 154.058 59.8177 155.31 60.4005 156.483C60.9833 157.656 61.7756 158.679 62.7773 159.551C63.7607 160.423 64.9263 161.113 66.2741 161.62C67.6036 162.127 69.0241 162.381 70.5358 162.381C72.0656 162.381 73.5044 162.127 74.8521 161.62C76.1816 161.113 77.3563 160.423 78.3762 159.551C79.3779 158.679 80.1702 157.656 80.753 156.483L81.6272 152.726ZM85.4245 163.879C85.4245 164.466 85.2241 164.902 84.8235 165.187C84.4228 165.488 83.9857 165.639 83.5122 165.639C83.0386 165.639 82.6107 165.488 82.2282 165.187C81.8275 164.902 81.6272 164.466 81.6272 163.879V161.358C80.243 162.674 78.6039 163.713 76.7098 164.474C74.8157 165.25 72.7577 165.639 70.5358 165.639C69.1698 165.639 67.8585 165.48 66.6019 165.163C65.3452 164.862 64.1705 164.426 63.0778 163.855C61.9668 163.3 60.9651 162.627 60.0727 161.834C59.1621 161.057 58.388 160.185 57.7506 159.218C57.1132 158.267 56.6214 157.244 56.2754 156.15C55.9111 155.056 55.729 153.915 55.729 152.726C55.729 150.95 56.1206 149.278 56.9037 147.708C57.6687 146.139 58.725 144.767 60.0727 143.594C61.4022 142.437 62.9685 141.517 64.7715 140.836C66.5746 140.17 68.496 139.837 70.5358 139.837C71.9017 139.837 73.2221 139.988 74.497 140.289C75.7719 140.606 76.9648 141.042 78.0757 141.597C79.1685 142.152 80.1702 142.817 81.0808 143.594C81.9732 144.387 82.7472 145.259 83.4029 146.21C84.0403 147.177 84.5412 148.208 84.9054 149.302C85.2515 150.395 85.4245 151.537 85.4245 152.726V163.879Z"/>
<path d="M114.956 163.974C114.956 164.592 114.756 165.036 114.355 165.306C113.954 165.591 113.517 165.734 113.044 165.734C112.57 165.734 112.133 165.591 111.732 165.306C111.332 165.036 111.131 164.592 111.131 163.974V151.085C111.131 149.991 110.895 148.953 110.421 147.97C109.948 147.003 109.301 146.155 108.481 145.425C107.644 144.712 106.678 144.141 105.586 143.713C104.475 143.301 103.291 143.095 102.034 143.095C100.778 143.095 99.5938 143.301 98.4828 143.713C97.3537 144.141 96.3793 144.712 95.5597 145.425C94.722 146.155 94.0663 147.003 93.5928 147.97C93.101 148.953 92.8552 149.991 92.8552 151.085V163.974C92.8552 164.592 92.6548 165.036 92.2542 165.306C91.8535 165.591 91.4164 165.734 90.9429 165.734C90.4693 165.734 90.0413 165.591 89.6589 165.306C89.2582 165.036 89.0579 164.592 89.0579 163.974V151.085C89.0579 149.547 89.4039 148.089 90.096 146.709C90.7698 145.346 91.6987 144.157 92.8825 143.142C94.0663 142.128 95.4413 141.319 97.0076 140.717C98.5739 140.13 100.249 139.837 102.034 139.837C103.801 139.837 105.476 140.13 107.061 140.717C108.627 141.319 109.993 142.128 111.159 143.142C112.324 144.157 113.253 145.346 113.945 146.709C114.619 148.089 114.956 149.547 114.956 151.085V163.974Z"/>
<path d="M138.177 158.291C138.177 159.369 137.94 160.359 137.467 161.263C136.975 162.167 136.328 162.944 135.527 163.594C134.707 164.244 133.76 164.743 132.686 165.092C131.593 165.456 130.446 165.639 129.244 165.639H120.556C119.882 165.639 119.382 165.464 119.054 165.116C118.726 164.767 118.562 164.386 118.562 163.974C118.562 163.562 118.726 163.189 119.054 162.856C119.382 162.539 119.882 162.381 120.556 162.381H129.244C129.918 162.381 130.564 162.286 131.183 162.095C131.803 161.905 132.349 161.628 132.822 161.263C133.296 160.914 133.678 160.486 133.97 159.979C134.243 159.488 134.38 158.925 134.38 158.291C134.38 157.577 134.179 156.911 133.779 156.293C133.378 155.675 132.795 155.231 132.03 154.961L123.643 152.013C122.205 151.505 121.066 150.728 120.229 149.682C119.373 148.636 118.945 147.447 118.945 146.115C118.945 145.18 119.172 144.324 119.628 143.547C120.065 142.77 120.657 142.104 121.403 141.549C122.15 141.01 123.006 140.59 123.971 140.289C124.936 139.988 125.929 139.837 126.949 139.837H134.598C135.272 139.837 135.782 139.995 136.128 140.313C136.456 140.645 136.62 141.018 136.62 141.43C136.62 141.842 136.456 142.223 136.128 142.572C135.782 142.92 135.272 143.095 134.598 143.095H126.949C126.439 143.095 125.938 143.158 125.446 143.285C124.936 143.428 124.481 143.626 124.08 143.88C123.68 144.149 123.361 144.466 123.124 144.831C122.869 145.211 122.742 145.639 122.742 146.115C122.742 146.781 122.951 147.352 123.37 147.827C123.789 148.319 124.345 148.691 125.037 148.945L133.478 151.894C134.207 152.147 134.862 152.496 135.445 152.94C136.028 153.384 136.52 153.883 136.92 154.438C137.321 155.009 137.631 155.619 137.849 156.269L138.177 158.291Z"/>
<path d="M145.58 163.974C145.58 164.592 145.38 165.036 144.979 165.306C144.579 165.591 144.142 165.734 143.668 165.734C143.194 165.734 142.766 165.591 142.384 165.306C141.983 165.036 141.783 164.592 141.783 163.974V130.467C141.783 129.881 141.983 129.445 142.384 129.159C142.766 128.874 143.194 128.731 143.668 128.731C144.142 128.731 144.579 128.874 144.979 129.159C145.38 129.445 145.58 129.881 145.58 130.467V163.974Z"/>
<path d="M175.057 152.726C175.057 151.394 174.766 150.142 174.183 148.969C173.6 147.811 172.808 146.797 171.806 145.925C170.786 145.053 169.612 144.363 168.282 143.856C166.934 143.349 165.496 143.095 163.966 143.095C162.454 143.095 161.034 143.349 159.704 143.856C158.356 144.363 157.191 145.053 156.207 145.925C155.206 146.797 154.413 147.811 153.831 148.969C153.248 150.142 152.956 151.394 152.956 152.726C152.956 154.058 153.248 155.31 153.831 156.483C154.413 157.656 155.206 158.679 156.207 159.551C157.191 160.423 158.356 161.113 159.704 161.62C161.034 162.127 162.454 162.381 163.966 162.381C165.496 162.381 166.934 162.127 168.282 161.62C169.612 161.113 170.786 160.423 171.806 159.551C172.808 158.679 173.6 157.656 174.183 156.483L175.057 152.726ZM178.855 163.879C178.855 164.466 178.654 164.902 178.254 165.187C177.853 165.488 177.416 165.639 176.942 165.639C176.469 165.639 176.041 165.488 175.658 165.187C175.258 164.902 175.057 164.466 175.057 163.879V161.358C173.673 162.674 172.034 163.713 170.14 164.474C168.246 165.25 166.188 165.639 163.966 165.639C162.6 165.639 161.289 165.48 160.032 165.163C158.775 164.862 157.601 164.426 156.508 163.855C155.397 163.3 154.395 162.627 153.503 161.834C152.592 161.057 151.818 160.185 151.181 159.218C150.543 158.267 150.051 157.244 149.705 156.15C149.341 155.056 149.159 153.915 149.159 152.726C149.159 150.95 149.551 149.278 150.334 147.708C151.099 146.139 152.155 144.767 153.503 143.594C154.832 142.437 156.399 141.517 158.202 140.836C160.005 140.17 161.926 139.837 163.966 139.837C165.332 139.837 166.652 139.988 167.927 140.289C169.202 140.606 170.395 141.042 171.506 141.597C172.599 142.152 173.6 142.817 174.511 143.594C175.403 144.387 176.177 145.259 176.833 146.21C177.47 147.177 177.971 148.208 178.335 149.302C178.681 150.395 178.855 151.537 178.855 152.726V163.879Z"/>
<path d="M197.568 141.43C197.568 141.842 197.404 142.223 197.076 142.572C196.748 142.92 196.247 143.095 195.574 143.095H186.285V154.486C186.285 155.564 186.522 156.578 186.995 157.53C187.451 158.481 188.088 159.313 188.908 160.027C189.746 160.74 190.711 161.311 191.804 161.739C192.896 162.167 194.08 162.381 195.355 162.381C196.029 162.381 196.53 162.547 196.858 162.88C197.185 163.229 197.349 163.594 197.349 163.974C197.349 164.386 197.185 164.767 196.858 165.116C196.53 165.464 196.029 165.639 195.355 165.639C193.552 165.639 191.876 165.345 190.328 164.759C188.78 164.172 187.433 163.38 186.285 162.381C185.101 161.35 184.173 160.161 183.499 158.814C182.825 157.466 182.488 156.024 182.488 154.486V130.467C182.488 129.881 182.688 129.445 183.089 129.159C183.471 128.874 183.899 128.731 184.373 128.731C184.846 128.731 185.284 128.874 185.684 129.159C186.085 129.445 186.285 129.881 186.285 130.467V139.837H195.574C196.247 139.837 196.748 139.995 197.076 140.313L197.568 141.43Z"/>
<path d="M205.982 163.974C205.982 164.592 205.782 165.036 205.381 165.306C204.98 165.591 204.543 165.734 204.07 165.734C203.596 165.734 203.159 165.591 202.758 165.306C202.358 165.036 202.157 164.592 202.157 163.974V141.43C202.157 140.844 202.358 140.4 202.758 140.099C203.159 139.813 203.596 139.67 204.07 139.67C204.543 139.67 204.98 139.813 205.381 140.099C205.782 140.4 205.982 140.844 205.982 141.43V163.974ZM206.993 133.797C206.993 134.13 206.92 134.447 206.774 134.748C206.61 135.065 206.401 135.334 206.146 135.556C205.873 135.794 205.563 135.977 205.217 136.103C204.853 136.246 204.47 136.317 204.07 136.317C203.669 136.317 203.296 136.246 202.95 136.103C202.585 135.977 202.276 135.794 202.021 135.556C201.766 135.334 201.565 135.065 201.42 134.748C201.256 134.447 201.174 134.13 201.174 133.797C201.174 133.448 201.256 133.115 201.42 132.798C201.565 132.481 201.766 132.203 202.021 131.966C202.276 131.728 202.585 131.538 202.95 131.395C203.296 131.268 203.669 131.205 204.07 131.205C204.47 131.205 204.853 131.268 205.217 131.395C205.563 131.538 205.873 131.728 206.146 131.966C206.401 132.203 206.61 132.481 206.774 132.798L206.993 133.797Z"/>
</mask>
<path d="M56.33 141.43C56.33 141.842 56.1661 142.223 55.8383 142.572C55.5105 142.92 55.0096 143.095 54.3358 143.095C53.0791 143.095 51.8953 143.309 50.7843 143.737C49.6734 144.165 48.6899 144.744 47.8339 145.473C46.9961 146.186 46.3405 147.019 45.867 147.97C45.3934 148.937 45.1567 149.975 45.1567 151.085V163.974C45.1567 164.592 44.9563 165.036 44.5557 165.306C44.155 165.591 43.7179 165.734 43.2444 165.734C42.7708 165.734 42.3428 165.591 41.9604 165.306C41.5597 165.036 41.3594 164.592 41.3594 163.974V151.085C41.3594 149.516 41.6963 148.057 42.3702 146.709C43.044 145.362 43.9729 144.173 45.1567 143.142C46.3405 142.112 47.7155 141.303 49.2818 140.717C50.8481 140.13 52.5327 139.837 54.3358 139.837C55.0096 139.837 55.5105 139.995 55.8383 140.313L56.33 141.43Z" fill="white"/>
<path d="M81.6272 152.726C81.6272 151.394 81.3358 150.142 80.753 148.969C80.1702 147.811 79.3779 146.797 78.3762 145.925C77.3563 145.053 76.1816 144.363 74.8521 143.856C73.5044 143.349 72.0656 143.095 70.5358 143.095C69.0241 143.095 67.6036 143.349 66.2741 143.856C64.9263 144.363 63.7607 145.053 62.7773 145.925C61.7756 146.797 60.9833 147.811 60.4005 148.969C59.8177 150.142 59.5263 151.394 59.5263 152.726C59.5263 154.058 59.8177 155.31 60.4005 156.483C60.9833 157.656 61.7756 158.679 62.7773 159.551C63.7607 160.423 64.9263 161.113 66.2741 161.62C67.6036 162.127 69.0241 162.381 70.5358 162.381C72.0656 162.381 73.5044 162.127 74.8521 161.62C76.1816 161.113 77.3563 160.423 78.3762 159.551C79.3779 158.679 80.1702 157.656 80.753 156.483L81.6272 152.726ZM85.4245 163.879C85.4245 164.466 85.2241 164.902 84.8235 165.187C84.4228 165.488 83.9857 165.639 83.5122 165.639C83.0386 165.639 82.6107 165.488 82.2282 165.187C81.8275 164.902 81.6272 164.466 81.6272 163.879V161.358C80.243 162.674 78.6039 163.713 76.7098 164.474C74.8157 165.25 72.7577 165.639 70.5358 165.639C69.1698 165.639 67.8585 165.48 66.6019 165.163C65.3452 164.862 64.1705 164.426 63.0778 163.855C61.9668 163.3 60.9651 162.627 60.0727 161.834C59.1621 161.057 58.388 160.185 57.7506 159.218C57.1132 158.267 56.6214 157.244 56.2754 156.15C55.9111 155.056 55.729 153.915 55.729 152.726C55.729 150.95 56.1206 149.278 56.9037 147.708C57.6687 146.139 58.725 144.767 60.0727 143.594C61.4022 142.437 62.9685 141.517 64.7715 140.836C66.5746 140.17 68.496 139.837 70.5358 139.837C71.9017 139.837 73.2221 139.988 74.497 140.289C75.7719 140.606 76.9648 141.042 78.0757 141.597C79.1685 142.152 80.1702 142.817 81.0808 143.594C81.9732 144.387 82.7472 145.259 83.4029 146.21C84.0403 147.177 84.5412 148.208 84.9054 149.302C85.2515 150.395 85.4245 151.537 85.4245 152.726V163.879Z" fill="white"/>
<path d="M114.956 163.974C114.956 164.592 114.756 165.036 114.355 165.306C113.954 165.591 113.517 165.734 113.044 165.734C112.57 165.734 112.133 165.591 111.732 165.306C111.332 165.036 111.131 164.592 111.131 163.974V151.085C111.131 149.991 110.895 148.953 110.421 147.97C109.948 147.003 109.301 146.155 108.481 145.425C107.644 144.712 106.678 144.141 105.586 143.713C104.475 143.301 103.291 143.095 102.034 143.095C100.778 143.095 99.5938 143.301 98.4828 143.713C97.3537 144.141 96.3793 144.712 95.5597 145.425C94.722 146.155 94.0663 147.003 93.5928 147.97C93.101 148.953 92.8552 149.991 92.8552 151.085V163.974C92.8552 164.592 92.6548 165.036 92.2542 165.306C91.8535 165.591 91.4164 165.734 90.9429 165.734C90.4693 165.734 90.0413 165.591 89.6589 165.306C89.2582 165.036 89.0579 164.592 89.0579 163.974V151.085C89.0579 149.547 89.4039 148.089 90.096 146.709C90.7698 145.346 91.6987 144.157 92.8825 143.142C94.0663 142.128 95.4413 141.319 97.0076 140.717C98.5739 140.13 100.249 139.837 102.034 139.837C103.801 139.837 105.476 140.13 107.061 140.717C108.627 141.319 109.993 142.128 111.159 143.142C112.324 144.157 113.253 145.346 113.945 146.709C114.619 148.089 114.956 149.547 114.956 151.085V163.974Z" fill="white"/>
<path d="M138.177 158.291C138.177 159.369 137.94 160.359 137.467 161.263C136.975 162.167 136.328 162.944 135.527 163.594C134.707 164.244 133.76 164.743 132.686 165.092C131.593 165.456 130.446 165.639 129.244 165.639H120.556C119.882 165.639 119.382 165.464 119.054 165.116C118.726 164.767 118.562 164.386 118.562 163.974C118.562 163.562 118.726 163.189 119.054 162.856C119.382 162.539 119.882 162.381 120.556 162.381H129.244C129.918 162.381 130.564 162.286 131.183 162.095C131.803 161.905 132.349 161.628 132.822 161.263C133.296 160.914 133.678 160.486 133.97 159.979C134.243 159.488 134.38 158.925 134.38 158.291C134.38 157.577 134.179 156.911 133.779 156.293C133.378 155.675 132.795 155.231 132.03 154.961L123.643 152.013C122.205 151.505 121.066 150.728 120.229 149.682C119.373 148.636 118.945 147.447 118.945 146.115C118.945 145.18 119.172 144.324 119.628 143.547C120.065 142.77 120.657 142.104 121.403 141.549C122.15 141.01 123.006 140.59 123.971 140.289C124.936 139.988 125.929 139.837 126.949 139.837H134.598C135.272 139.837 135.782 139.995 136.128 140.313C136.456 140.645 136.62 141.018 136.62 141.43C136.62 141.842 136.456 142.223 136.128 142.572C135.782 142.92 135.272 143.095 134.598 143.095H126.949C126.439 143.095 125.938 143.158 125.446 143.285C124.936 143.428 124.481 143.626 124.08 143.88C123.68 144.149 123.361 144.466 123.124 144.831C122.869 145.211 122.742 145.639 122.742 146.115C122.742 146.781 122.951 147.352 123.37 147.827C123.789 148.319 124.345 148.691 125.037 148.945L133.478 151.894C134.207 152.147 134.862 152.496 135.445 152.94C136.028 153.384 136.52 153.883 136.92 154.438C137.321 155.009 137.631 155.619 137.849 156.269L138.177 158.291Z" fill="white"/>
<path d="M145.58 163.974C145.58 164.592 145.38 165.036 144.979 165.306C144.579 165.591 144.142 165.734 143.668 165.734C143.194 165.734 142.766 165.591 142.384 165.306C141.983 165.036 141.783 164.592 141.783 163.974V130.467C141.783 129.881 141.983 129.445 142.384 129.159C142.766 128.874 143.194 128.731 143.668 128.731C144.142 128.731 144.579 128.874 144.979 129.159C145.38 129.445 145.58 129.881 145.58 130.467V163.974Z" fill="white"/>
<path d="M175.057 152.726C175.057 151.394 174.766 150.142 174.183 148.969C173.6 147.811 172.808 146.797 171.806 145.925C170.786 145.053 169.612 144.363 168.282 143.856C166.934 143.349 165.496 143.095 163.966 143.095C162.454 143.095 161.034 143.349 159.704 143.856C158.356 144.363 157.191 145.053 156.207 145.925C155.206 146.797 154.413 147.811 153.831 148.969C153.248 150.142 152.956 151.394 152.956 152.726C152.956 154.058 153.248 155.31 153.831 156.483C154.413 157.656 155.206 158.679 156.207 159.551C157.191 160.423 158.356 161.113 159.704 161.62C161.034 162.127 162.454 162.381 163.966 162.381C165.496 162.381 166.934 162.127 168.282 161.62C169.612 161.113 170.786 160.423 171.806 159.551C172.808 158.679 173.6 157.656 174.183 156.483L175.057 152.726ZM178.855 163.879C178.855 164.466 178.654 164.902 178.254 165.187C177.853 165.488 177.416 165.639 176.942 165.639C176.469 165.639 176.041 165.488 175.658 165.187C175.258 164.902 175.057 164.466 175.057 163.879V161.358C173.673 162.674 172.034 163.713 170.14 164.474C168.246 165.25 166.188 165.639 163.966 165.639C162.6 165.639 161.289 165.48 160.032 165.163C158.775 164.862 157.601 164.426 156.508 163.855C155.397 163.3 154.395 162.627 153.503 161.834C152.592 161.057 151.818 160.185 151.181 159.218C150.543 158.267 150.051 157.244 149.705 156.15C149.341 155.056 149.159 153.915 149.159 152.726C149.159 150.95 149.551 149.278 150.334 147.708C151.099 146.139 152.155 144.767 153.503 143.594C154.832 142.437 156.399 141.517 158.202 140.836C160.005 140.17 161.926 139.837 163.966 139.837C165.332 139.837 166.652 139.988 167.927 140.289C169.202 140.606 170.395 141.042 171.506 141.597C172.599 142.152 173.6 142.817 174.511 143.594C175.403 144.387 176.177 145.259 176.833 146.21C177.47 147.177 177.971 148.208 178.335 149.302C178.681 150.395 178.855 151.537 178.855 152.726V163.879Z" fill="white"/>
<path d="M197.568 141.43C197.568 141.842 197.404 142.223 197.076 142.572C196.748 142.92 196.247 143.095 195.574 143.095H186.285V154.486C186.285 155.564 186.522 156.578 186.995 157.53C187.451 158.481 188.088 159.313 188.908 160.027C189.746 160.74 190.711 161.311 191.804 161.739C192.896 162.167 194.08 162.381 195.355 162.381C196.029 162.381 196.53 162.547 196.858 162.88C197.185 163.229 197.349 163.594 197.349 163.974C197.349 164.386 197.185 164.767 196.858 165.116C196.53 165.464 196.029 165.639 195.355 165.639C193.552 165.639 191.876 165.345 190.328 164.759C188.78 164.172 187.433 163.38 186.285 162.381C185.101 161.35 184.173 160.161 183.499 158.814C182.825 157.466 182.488 156.024 182.488 154.486V130.467C182.488 129.881 182.688 129.445 183.089 129.159C183.471 128.874 183.899 128.731 184.373 128.731C184.846 128.731 185.284 128.874 185.684 129.159C186.085 129.445 186.285 129.881 186.285 130.467V139.837H195.574C196.247 139.837 196.748 139.995 197.076 140.313L197.568 141.43Z" fill="white"/>
<path d="M205.982 163.974C205.982 164.592 205.782 165.036 205.381 165.306C204.98 165.591 204.543 165.734 204.07 165.734C203.596 165.734 203.159 165.591 202.758 165.306C202.358 165.036 202.157 164.592 202.157 163.974V141.43C202.157 140.844 202.358 140.4 202.758 140.099C203.159 139.813 203.596 139.67 204.07 139.67C204.543 139.67 204.98 139.813 205.381 140.099C205.782 140.4 205.982 140.844 205.982 141.43V163.974ZM206.993 133.797C206.993 134.13 206.92 134.447 206.774 134.748C206.61 135.065 206.401 135.334 206.146 135.556C205.873 135.794 205.563 135.977 205.217 136.103C204.853 136.246 204.47 136.317 204.07 136.317C203.669 136.317 203.296 136.246 202.95 136.103C202.585 135.977 202.276 135.794 202.021 135.556C201.766 135.334 201.565 135.065 201.42 134.748C201.256 134.447 201.174 134.13 201.174 133.797C201.174 133.448 201.256 133.115 201.42 132.798C201.565 132.481 201.766 132.203 202.021 131.966C202.276 131.728 202.585 131.538 202.95 131.395C203.296 131.268 203.669 131.205 204.07 131.205C204.47 131.205 204.853 131.268 205.217 131.395C205.563 131.538 205.873 131.728 206.146 131.966C206.401 132.203 206.61 132.481 206.774 132.798L206.993 133.797Z" fill="white"/>
<path d="M56.33 141.43C56.33 141.842 56.1661 142.223 55.8383 142.572C55.5105 142.92 55.0096 143.095 54.3358 143.095C53.0791 143.095 51.8953 143.309 50.7843 143.737C49.6734 144.165 48.6899 144.744 47.8339 145.473C46.9961 146.186 46.3405 147.019 45.867 147.97C45.3934 148.937 45.1567 149.975 45.1567 151.085V163.974C45.1567 164.592 44.9563 165.036 44.5557 165.306C44.155 165.591 43.7179 165.734 43.2444 165.734C42.7708 165.734 42.3428 165.591 41.9604 165.306C41.5597 165.036 41.3594 164.592 41.3594 163.974V151.085C41.3594 149.516 41.6963 148.057 42.3702 146.709C43.044 145.362 43.9729 144.173 45.1567 143.142C46.3405 142.112 47.7155 141.303 49.2818 140.717C50.8481 140.13 52.5327 139.837 54.3358 139.837C55.0096 139.837 55.5105 139.995 55.8383 140.313L56.33 141.43Z" stroke="white" stroke-width="2" mask="url(#path-2-outside-1_172_717)"/>
<path d="M81.6272 152.726C81.6272 151.394 81.3358 150.142 80.753 148.969C80.1702 147.811 79.3779 146.797 78.3762 145.925C77.3563 145.053 76.1816 144.363 74.8521 143.856C73.5044 143.349 72.0656 143.095 70.5358 143.095C69.0241 143.095 67.6036 143.349 66.2741 143.856C64.9263 144.363 63.7607 145.053 62.7773 145.925C61.7756 146.797 60.9833 147.811 60.4005 148.969C59.8177 150.142 59.5263 151.394 59.5263 152.726C59.5263 154.058 59.8177 155.31 60.4005 156.483C60.9833 157.656 61.7756 158.679 62.7773 159.551C63.7607 160.423 64.9263 161.113 66.2741 161.62C67.6036 162.127 69.0241 162.381 70.5358 162.381C72.0656 162.381 73.5044 162.127 74.8521 161.62C76.1816 161.113 77.3563 160.423 78.3762 159.551C79.3779 158.679 80.1702 157.656 80.753 156.483L81.6272 152.726ZM85.4245 163.879C85.4245 164.466 85.2241 164.902 84.8235 165.187C84.4228 165.488 83.9857 165.639 83.5122 165.639C83.0386 165.639 82.6107 165.488 82.2282 165.187C81.8275 164.902 81.6272 164.466 81.6272 163.879V161.358C80.243 162.674 78.6039 163.713 76.7098 164.474C74.8157 165.25 72.7577 165.639 70.5358 165.639C69.1698 165.639 67.8585 165.48 66.6019 165.163C65.3452 164.862 64.1705 164.426 63.0778 163.855C61.9668 163.3 60.9651 162.627 60.0727 161.834C59.1621 161.057 58.388 160.185 57.7506 159.218C57.1132 158.267 56.6214 157.244 56.2754 156.15C55.9111 155.056 55.729 153.915 55.729 152.726C55.729 150.95 56.1206 149.278 56.9037 147.708C57.6687 146.139 58.725 144.767 60.0727 143.594C61.4022 142.437 62.9685 141.517 64.7715 140.836C66.5746 140.17 68.496 139.837 70.5358 139.837C71.9017 139.837 73.2221 139.988 74.497 140.289C75.7719 140.606 76.9648 141.042 78.0757 141.597C79.1685 142.152 80.1702 142.817 81.0808 143.594C81.9732 144.387 82.7472 145.259 83.4029 146.21C84.0403 147.177 84.5412 148.208 84.9054 149.302C85.2515 150.395 85.4245 151.537 85.4245 152.726V163.879Z" stroke="white" stroke-width="2" mask="url(#path-2-outside-1_172_717)"/>
<path d="M114.956 163.974C114.956 164.592 114.756 165.036 114.355 165.306C113.954 165.591 113.517 165.734 113.044 165.734C112.57 165.734 112.133 165.591 111.732 165.306C111.332 165.036 111.131 164.592 111.131 163.974V151.085C111.131 149.991 110.895 148.953 110.421 147.97C109.948 147.003 109.301 146.155 108.481 145.425C107.644 144.712 106.678 144.141 105.586 143.713C104.475 143.301 103.291 143.095 102.034 143.095C100.778 143.095 99.5938 143.301 98.4828 143.713C97.3537 144.141 96.3793 144.712 95.5597 145.425C94.722 146.155 94.0663 147.003 93.5928 147.97C93.101 148.953 92.8552 149.991 92.8552 151.085V163.974C92.8552 164.592 92.6548 165.036 92.2542 165.306C91.8535 165.591 91.4164 165.734 90.9429 165.734C90.4693 165.734 90.0413 165.591 89.6589 165.306C89.2582 165.036 89.0579 164.592 89.0579 163.974V151.085C89.0579 149.547 89.4039 148.089 90.096 146.709C90.7698 145.346 91.6987 144.157 92.8825 143.142C94.0663 142.128 95.4413 141.319 97.0076 140.717C98.5739 140.13 100.249 139.837 102.034 139.837C103.801 139.837 105.476 140.13 107.061 140.717C108.627 141.319 109.993 142.128 111.159 143.142C112.324 144.157 113.253 145.346 113.945 146.709C114.619 148.089 114.956 149.547 114.956 151.085V163.974Z" stroke="white" stroke-width="2" mask="url(#path-2-outside-1_172_717)"/>
<path d="M138.177 158.291C138.177 159.369 137.94 160.359 137.467 161.263C136.975 162.167 136.328 162.944 135.527 163.594C134.707 164.244 133.76 164.743 132.686 165.092C131.593 165.456 130.446 165.639 129.244 165.639H120.556C119.882 165.639 119.382 165.464 119.054 165.116C118.726 164.767 118.562 164.386 118.562 163.974C118.562 163.562 118.726 163.189 119.054 162.856C119.382 162.539 119.882 162.381 120.556 162.381H129.244C129.918 162.381 130.564 162.286 131.183 162.095C131.803 161.905 132.349 161.628 132.822 161.263C133.296 160.914 133.678 160.486 133.97 159.979C134.243 159.488 134.38 158.925 134.38 158.291C134.38 157.577 134.179 156.911 133.779 156.293C133.378 155.675 132.795 155.231 132.03 154.961L123.643 152.013C122.205 151.505 121.066 150.728 120.229 149.682C119.373 148.636 118.945 147.447 118.945 146.115C118.945 145.18 119.172 144.324 119.628 143.547C120.065 142.77 120.657 142.104 121.403 141.549C122.15 141.01 123.006 140.59 123.971 140.289C124.936 139.988 125.929 139.837 126.949 139.837H134.598C135.272 139.837 135.782 139.995 136.128 140.313C136.456 140.645 136.62 141.018 136.62 141.43C136.62 141.842 136.456 142.223 136.128 142.572C135.782 142.92 135.272 143.095 134.598 143.095H126.949C126.439 143.095 125.938 143.158 125.446 143.285C124.936 143.428 124.481 143.626 124.08 143.88C123.68 144.149 123.361 144.466 123.124 144.831C122.869 145.211 122.742 145.639 122.742 146.115C122.742 146.781 122.951 147.352 123.37 147.827C123.789 148.319 124.345 148.691 125.037 148.945L133.478 151.894C134.207 152.147 134.862 152.496 135.445 152.94C136.028 153.384 136.52 153.883 136.92 154.438C137.321 155.009 137.631 155.619 137.849 156.269L138.177 158.291Z" stroke="white" stroke-width="2" mask="url(#path-2-outside-1_172_717)"/>
<path d="M145.58 163.974C145.58 164.592 145.38 165.036 144.979 165.306C144.579 165.591 144.142 165.734 143.668 165.734C143.194 165.734 142.766 165.591 142.384 165.306C141.983 165.036 141.783 164.592 141.783 163.974V130.467C141.783 129.881 141.983 129.445 142.384 129.159C142.766 128.874 143.194 128.731 143.668 128.731C144.142 128.731 144.579 128.874 144.979 129.159C145.38 129.445 145.58 129.881 145.58 130.467V163.974Z" stroke="white" stroke-width="2" mask="url(#path-2-outside-1_172_717)"/>
<path d="M175.057 152.726C175.057 151.394 174.766 150.142 174.183 148.969C173.6 147.811 172.808 146.797 171.806 145.925C170.786 145.053 169.612 144.363 168.282 143.856C166.934 143.349 165.496 143.095 163.966 143.095C162.454 143.095 161.034 143.349 159.704 143.856C158.356 144.363 157.191 145.053 156.207 145.925C155.206 146.797 154.413 147.811 153.831 148.969C153.248 150.142 152.956 151.394 152.956 152.726C152.956 154.058 153.248 155.31 153.831 156.483C154.413 157.656 155.206 158.679 156.207 159.551C157.191 160.423 158.356 161.113 159.704 161.62C161.034 162.127 162.454 162.381 163.966 162.381C165.496 162.381 166.934 162.127 168.282 161.62C169.612 161.113 170.786 160.423 171.806 159.551C172.808 158.679 173.6 157.656 174.183 156.483L175.057 152.726ZM178.855 163.879C178.855 164.466 178.654 164.902 178.254 165.187C177.853 165.488 177.416 165.639 176.942 165.639C176.469 165.639 176.041 165.488 175.658 165.187C175.258 164.902 175.057 164.466 175.057 163.879V161.358C173.673 162.674 172.034 163.713 170.14 164.474C168.246 165.25 166.188 165.639 163.966 165.639C162.6 165.639 161.289 165.48 160.032 165.163C158.775 164.862 157.601 164.426 156.508 163.855C155.397 163.3 154.395 162.627 153.503 161.834C152.592 161.057 151.818 160.185 151.181 159.218C150.543 158.267 150.051 157.244 149.705 156.15C149.341 155.056 149.159 153.915 149.159 152.726C149.159 150.95 149.551 149.278 150.334 147.708C151.099 146.139 152.155 144.767 153.503 143.594C154.832 142.437 156.399 141.517 158.202 140.836C160.005 140.17 161.926 139.837 163.966 139.837C165.332 139.837 166.652 139.988 167.927 140.289C169.202 140.606 170.395 141.042 171.506 141.597C172.599 142.152 173.6 142.817 174.511 143.594C175.403 144.387 176.177 145.259 176.833 146.21C177.47 147.177 177.971 148.208 178.335 149.302C178.681 150.395 178.855 151.537 178.855 152.726V163.879Z" stroke="white" stroke-width="2" mask="url(#path-2-outside-1_172_717)"/>
<path d="M197.568 141.43C197.568 141.842 197.404 142.223 197.076 142.572C196.748 142.92 196.247 143.095 195.574 143.095H186.285V154.486C186.285 155.564 186.522 156.578 186.995 157.53C187.451 158.481 188.088 159.313 188.908 160.027C189.746 160.74 190.711 161.311 191.804 161.739C192.896 162.167 194.08 162.381 195.355 162.381C196.029 162.381 196.53 162.547 196.858 162.88C197.185 163.229 197.349 163.594 197.349 163.974C197.349 164.386 197.185 164.767 196.858 165.116C196.53 165.464 196.029 165.639 195.355 165.639C193.552 165.639 191.876 165.345 190.328 164.759C188.78 164.172 187.433 163.38 186.285 162.381C185.101 161.35 184.173 160.161 183.499 158.814C182.825 157.466 182.488 156.024 182.488 154.486V130.467C182.488 129.881 182.688 129.445 183.089 129.159C183.471 128.874 183.899 128.731 184.373 128.731C184.846 128.731 185.284 128.874 185.684 129.159C186.085 129.445 186.285 129.881 186.285 130.467V139.837H195.574C196.247 139.837 196.748 139.995 197.076 140.313L197.568 141.43Z" stroke="white" stroke-width="2" mask="url(#path-2-outside-1_172_717)"/>
<path d="M205.982 163.974C205.982 164.592 205.782 165.036 205.381 165.306C204.98 165.591 204.543 165.734 204.07 165.734C203.596 165.734 203.159 165.591 202.758 165.306C202.358 165.036 202.157 164.592 202.157 163.974V141.43C202.157 140.844 202.358 140.4 202.758 140.099C203.159 139.813 203.596 139.67 204.07 139.67C204.543 139.67 204.98 139.813 205.381 140.099C205.782 140.4 205.982 140.844 205.982 141.43V163.974ZM206.993 133.797C206.993 134.13 206.92 134.447 206.774 134.748C206.61 135.065 206.401 135.334 206.146 135.556C205.873 135.794 205.563 135.977 205.217 136.103C204.853 136.246 204.47 136.317 204.07 136.317C203.669 136.317 203.296 136.246 202.95 136.103C202.585 135.977 202.276 135.794 202.021 135.556C201.766 135.334 201.565 135.065 201.42 134.748C201.256 134.447 201.174 134.13 201.174 133.797C201.174 133.448 201.256 133.115 201.42 132.798C201.565 132.481 201.766 132.203 202.021 131.966C202.276 131.728 202.585 131.538 202.95 131.395C203.296 131.268 203.669 131.205 204.07 131.205C204.47 131.205 204.853 131.268 205.217 131.395C205.563 131.538 205.873 131.728 206.146 131.966C206.401 132.203 206.61 132.481 206.774 132.798L206.993 133.797Z" stroke="white" stroke-width="2" mask="url(#path-2-outside-1_172_717)"/>
<rect x="209.329" y="138.998" width="64.9207" height="26.7927" rx="13.3963" fill="white"/>
<circle cx="222.726" cy="152.395" r="10.3049" fill="#2FB9B5"/>
<path d="M46.1506 133.803C43.7405 133.803 29.0534 134.058 29.0534 134.058L36.8248 141.467C36.8248 141.467 35.1385 146.946 32.9652 145.041C30.792 143.135 24.4783 136.955 22.0591 134.569C19.6399 132.183 20.7639 128.693 23.8725 128.693H45.6325C48.0425 128.693 48.5606 133.803 46.1506 133.803Z" fill="white"/>
<path d="M38.1204 163.436L38.1204 152.342C35.9959 151.053 34.8048 151.634 32.6803 150.345L32.6804 163.436C32.6804 167.263 38.1204 167.263 38.1204 163.436Z" fill="white"/>
<path d="M38.1204 149.957L38.1204 161.051C35.9959 162.34 34.8048 161.76 32.6803 163.049L32.6804 149.957C32.6804 146.131 38.1204 146.131 38.1204 149.957Z" fill="white"/>
<path d="M36.4255 140.998L28.4575 133.531L23.3548 135.846C23.3548 135.846 29.9036 142.351 32.6824 144.883C35.4613 147.414 39.1735 143.574 36.4255 140.998Z" fill="white"/>
<path d="M45.6299 128.694L34.3801 128.694L32.3337 133.459C32.3337 133.459 41.6611 134.109 45.6299 134.055C49.5986 134.001 49.5097 128.694 45.6299 128.694Z" fill="white"/>
<path d="M31.9619 128.693L43.2117 128.693C44.5187 130.787 43.9302 131.961 45.2372 134.055C45.2372 134.055 34.895 133.995 31.0151 133.995C27.1352 133.995 28.082 128.693 31.9619 128.693Z" fill="white"/>
</svg>
