<?xml version="1.0" encoding="UTF-8" standalone="no"?>
<!-- Created with Inkscape (http://www.inkscape.org/) -->

<svg
   width="128.58751mm"
   height="36.066025mm"
   viewBox="0 0 128.58751 36.066025"
   version="1.1"
   id="svg2889"
   xmlns="http://www.w3.org/2000/svg"
   xmlns:svg="http://www.w3.org/2000/svg">
  <defs
     id="defs2886" />
  <g
     id="layer1"
     transform="translate(-53.99442,-26.284469)">
    <g
       aria-label="TMY"
       id="text6514"
       style="font-size:50.8px;font-family:'American Typewriter';-inkscape-font-specification:'American Typewriter';opacity:1;fill:#00a6d3;stroke-width:0.264583">
      <path
         d="m 66.595205,52.192964 q 0,1.575097 -0.545703,2.133203 -0.545704,0.558105 -1.5875,0.558105 -0.334864,0 -1.116211,-0.07441 -0.781348,-0.07441 -1.165821,-0.07441 -2.1208,0 -2.790527,1.872754 -0.310058,0.74414 -0.310058,1.624707 0,1.153418 0.5333,2.133203 0.533301,0.967383 1.401465,1.426269 0.843359,0.458887 2.331641,0.458887 1.079004,0 3.844726,-0.434082 2.778125,-0.434082 4.17959,-0.434082 0.731738,0 3.460254,0.483692 2.740918,0.483691 4.216797,0.483691 4.774902,0 4.774902,-4.167188 0,-1.984374 -0.719336,-2.716113 -0.706934,-0.731738 -1.971973,-0.731738 -0.496093,0 -1.463476,0.09922 -0.967383,0.09922 -1.389063,0.09922 -2.083593,0 -2.083593,-2.33164 V 34.966108 q 0,-0.607714 0.706933,-0.979785 0.719336,-0.384472 1.686719,-0.384472 1.041797,0 1.785937,0.458886 0.756543,0.458887 0.756543,1.314649 0,0.37207 -0.16123,0.818554 -0.198438,0.694532 -0.198438,1.971973 0,4.824512 3.398243,4.824512 2.530078,-0.173633 3.373437,-0.954981 0.843359,-0.781347 0.843359,-2.492871 0,-0.545703 -0.09922,-2.182812 -0.09922,-1.63711 -0.09922,-2.740918 0,-0.954981 0.198437,-2.753321 0.21084,-1.798339 0.21084,-2.641699 0,-1.351855 -0.471289,-2.046386 -0.471289,-0.694532 -1.761133,-0.694532 -0.272851,0 -0.967382,0.09922 -5.171778,0.620117 -13.468946,0.620117 -8.247558,0 -13.716992,-0.620117 -0.347265,-0.04961 -1.016992,-0.04961 -1.872754,0 -2.54248,0.781347 -0.657324,0.781348 -0.657324,2.480469 0,0.595313 0.21084,3.199805 0.04961,1.364258 0.04961,4.316015 0,2.790528 0.731738,4.241602 0.744141,1.438672 3.224609,1.438672 2.244825,-0.235645 3.075782,-1.190625 0.843359,-0.967383 0.843359,-2.517676 0,-0.731738 -0.186035,-1.971973 -0.173633,-1.240234 -0.173633,-1.736328 0,-1.525488 1.21543,-1.773535 0.818554,-0.198437 1.327051,-0.198437 2.282031,0 2.282031,2.988964 z"
         id="path9129" />
      <path
         d="m 116.17978,47.418061 -4.77491,-19.198828 q -0.26045,-1.835546 -3.03857,-1.835546 -1.079,0 -3.44785,0.310058 -2.36885,0.297656 -3.52227,0.297656 -0.70693,0 -1.860349,-0.09922 -1.153418,-0.111621 -2.145606,-0.21084 -0.992187,-0.111621 -1.860351,-0.173633 -0.868164,-0.07441 -1.599903,-0.07441 -2.158008,0 -3.33623,0.731738 -1.178223,0.731739 -1.178223,2.629297 0,4.005957 2.232422,4.005957 0.446484,0 1.302246,-0.173633 0.868164,-0.186035 1.339453,-0.186035 1.525488,0 1.525488,2.344043 v 16.817578 q 0,2.33164 -1.525488,2.33164 -0.334863,0 -1.153418,-0.148828 -0.806152,-0.16123 -1.289843,-0.16123 -2.071192,0 -2.43086,3.150195 0,2.393652 0.880567,3.237012 0.892968,0.830957 2.728515,0.830957 0.868164,0 3.112988,-0.223242 2.257227,-0.235645 3.683496,-0.235645 1.079006,0 3.187406,0.359668 2.1084,0.359668 2.91455,0.359668 3.10058,0 3.10058,-3.509863 0,-2.406055 -0.43408,-3.150195 -0.43408,-0.756543 -1.24023,-0.756543 -0.23565,0 -0.70694,0.04961 -0.47129,0.04961 -0.66972,0.04961 -1.37666,0 -1.37666,-2.182812 V 33.800288 l 6.41201,23.97373 q 0.69453,2.393652 1.32705,3.212207 0.63252,0.806152 2.26963,0.806152 h 1.98437 q 1.92237,0 2.80293,-0.930175 0.88057,-0.930176 1.21543,-2.678907 l 6.80889,-24.383007 v 18.801953 q 0,2.430859 -1.01699,2.430859 -0.26045,0 -0.79375,-0.124023 -0.5333,-0.124024 -0.78135,-0.124024 -1.42627,0 -1.42627,3.80752 0,1.947168 0.88057,2.728515 0.88056,0.781348 2.46806,0.781348 0.84336,0 3.1502,-0.359668 2.31924,-0.359668 3.50986,-0.359668 0.5333,0 1.12861,0.09922 0.60772,0.08682 1.33946,0.235644 0.73174,0.136426 1.63711,0.285254 0.91777,0.148828 1.53789,0.148828 3.54707,0 3.54707,-4.378027 -0.18604,-3.249414 -2.18282,-3.249414 -0.44648,0 -1.30224,0.186035 -0.85576,0.173633 -1.24024,0.173633 -1.67431,0 -1.67431,-2.691308 V 35.375386 q 0,-1.624707 1.32705,-1.624707 0.40928,0 1.27744,0.16123 0.88057,0.148828 1.36426,0.148828 2.43086,0 2.43086,-3.869531 0,-2.17041 -1.15342,-3.013769 -1.14102,-0.84336 -3.21221,-0.84336 -1.22783,0 -3.55947,0.334863 -2.31924,0.322461 -3.24941,0.322461 -0.71934,0 -1.71153,-0.111621 -0.97978,-0.124023 -1.88515,-0.248047 -0.89297,-0.136425 -1.61231,-0.210839 -0.70693,-0.08682 -1.43867,-0.08682 -3.24941,0 -3.77031,2.641699 z"
         id="path9131" />
      <path
         d="m 162.61415,41.365718 -2.79053,-6.39961 q -0.50849,-0.855761 -0.50849,-1.265039 0,-0.409277 0.75654,-0.79375 0.75654,-0.396875 1.24023,-0.992187 0.4837,-0.607715 0.4837,-2.120801 -0.27286,-1.971973 -1.22784,-2.740918 -0.94257,-0.768945 -2.48047,-0.768945 -0.95498,0 -2.82773,0.359668 -1.86035,0.347265 -2.6541,0.347265 -0.73174,0 -2.67891,-0.223242 -1.94717,-0.235644 -3.06338,-0.235644 -2.02158,0 -3.15019,0.868164 -1.11621,0.855761 -1.11621,3.199804 0.0992,1.810743 0.64492,2.43086 0.5581,0.620117 1.53789,0.620117 0.23564,0 0.79375,-0.04961 0.55811,-0.04961 0.88057,-0.04961 1.94716,0 2.95175,1.823145 l 7.56543,12.402343 q 1.21543,2.021582 1.21543,5.221387 -0.17363,2.033984 -1.82314,2.033984 -0.42168,0 -1.38906,-0.148828 -0.96739,-0.148828 -1.45108,-0.148828 -2.35644,0 -2.54248,3.447851 0,4.01836 5.13457,4.01836 1.5627,0 4.17959,-0.409278 2.6293,-0.409277 3.07578,-0.409277 0.93018,0 3.44785,0.483692 2.51768,0.483691 3.72071,0.483691 4.05556,0 4.05556,-4.167188 0,-3.559472 -2.57968,-3.559472 -0.66973,0 -1.76114,0.186035 -1.0914,0.173633 -1.55029,0.173633 -1.5999,0 -1.72393,-1.575098 0,-3.609082 0.81856,-5.233789 l 8.02432,-13.208496 q 0.74414,-1.314648 2.38125,-1.314648 0.37207,0 1.0914,0.07441 0.71934,0.07441 1.0418,0.07441 1.10381,0 1.67432,-0.719336 0.5705,-0.731738 0.5705,-2.889746 0,-2.071191 -0.91777,-2.889746 -0.90537,-0.818555 -2.54248,-0.818555 -0.91777,0 -2.71611,0.26045 -1.78594,0.248046 -2.6169,0.248046 -1.19062,0 -3.08818,-0.322461 -1.89756,-0.334863 -2.70371,-0.334863 -2.14561,0 -3.00137,1.885156 -0.65732,1.525489 -0.65732,2.43086 0,0.694531 0.27285,1.066601 0.28525,0.359668 0.88056,0.706934 0.59532,0.347266 0.80616,0.545703 0.22324,0.198438 0.22324,0.63252 0,0.32246 -0.29766,1.016992 z"
         id="path9133" />
    </g>
  </g>
</svg>
